<svg viewBox="0 0 512.0 512.0" xmlns="http://www.w3.org/2000/svg">
  <circle cx="256.0" cy="256.0" r="250.88" fill="#DBC38E"/>
  <g transform="translate(123.190,403.456) scale(0.489172,-0.489172)">
    <path d="M200 85Q200 55 207.5 39.5Q215 24 239.0 18.0Q263 12 311 12Q314 12 314.0 6.0Q314 0 311 0Q279 0 241.5 1.0Q204 2 160 2Q127 2 95.5 1.0Q64 0 39 0Q37 0 37.0 6.0Q37 12 39 12Q74 12 91.5 17.0Q109 22 114.5 37.0Q120 52 120 81V544Q120 573 114.5 587.5Q109 602 91.5 607.5Q74 613 39 613Q37 613 37.0 619.0Q37 625 39 625Q64 625 95.0 623.5Q126 622 159 622Q185 622 222.5 625.0Q260 628 298 628Q356 628 402.5 611.0Q449 594 477.0 558.0Q505 522 506 464Q506 412 487.0 374.0Q468 336 435.5 311.0Q403 286 363.5 274.0Q324 262 286 262Q274 262 261.5 263.0Q249 264 238 267Q234 268 235.5 274.5Q237 281 240 280Q249 278 258.5 277.0Q268 276 275 276Q313 276 345.0 294.0Q377 312 397.0 349.5Q417 387 417 443Q417 497 398.5 534.0Q380 571 347.0 591.0Q314 611 271 611Q243 611 227.5 607.0Q212 603 206.0 588.0Q200 573 200 542Z" fill="#3F2C15"/>
  </g>
</svg>